HIERARCHY
ROOT hip
{
OFFSET 0.10 80.85 0.18
CHANNELS 6 Xposition Yposition Zposition Zrotation Xrotation Yrotation
JOINT abdomen
{
OFFSET 0 7.23 0
CHANNELS 6 Xposition Yposition Zposition Zrotation Xrotation Yrotation
JOINT chest
{
OFFSET 0 16.54 0
CHANNELS 6 Xposition Yposition Zposition Zrotation Xrotation Yrotation
JOINT neck
{
OFFSET 0 34.21 0
CHANNELS 6 Xposition Yposition Zposition Zrotation Xrotation Yrotation
JOINT head
{
OFFSET 0 6.29 0
CHANNELS 6 Xposition Yposition Zposition Zrotation Xrotation Yrotation
End Site
{
OFFSET 0 21.21 0
}
}
}
JOINT lCollar
{
OFFSET 4.06 26.61 -1.12
CHANNELS 6 Xposition Yposition Zposition Zrotation Xrotation Yrotation
JOINT lShldr
{
OFFSET 14.17 0 0
CHANNELS 6 Xposition Yposition Zposition Zrotation Xrotation Yrotation
JOINT lForeArm
{
OFFSET 26.12 0 0
CHANNELS 6 Xposition Yposition Zposition Zrotation Xrotation Yrotation
JOINT lHand
{
OFFSET 27.71 0 0
CHANNELS 6 Xposition Yposition Zposition Zrotation Xrotation Yrotation
JOINT lThumb1
{
OFFSET 2.29 -0.46 1.83
CHANNELS 6 Xposition Yposition Zposition Zrotation Xrotation Yrotation
JOINT lThumb2
{
OFFSET 5.29 0 0
CHANNELS 6 Xposition Yposition Zposition Zrotation Xrotation Yrotation
JOINT lThumb3
{
OFFSET 3.01 0 0
CHANNELS 6 Xposition Yposition Zposition Zrotation Xrotation Yrotation
End Site
{
OFFSET 2.62 0 0
}
}
}
}
JOINT lIndex1
{
OFFSET 9.37 0.29 2.59
CHANNELS 6 Xposition Yposition Zposition Zrotation Xrotation Yrotation
JOINT lIndex2
{
OFFSET 4.34 0 0
CHANNELS 6 Xposition Yposition Zposition Zrotation Xrotation Yrotation
JOINT lIndex3
{
OFFSET 2.16 0 0
CHANNELS 6 Xposition Yposition Zposition Zrotation Xrotation Yrotation
End Site
{
OFFSET 2.20 0 0
}
}
}
}
JOINT lMid1
{
OFFSET 9.47 0.83 0.29
CHANNELS 6 Xposition Yposition Zposition Zrotation Xrotation Yrotation
JOINT lMid2
{
OFFSET 4.77 0 0
CHANNELS 6 Xposition Yposition Zposition Zrotation Xrotation Yrotation
JOINT lMid3
{
OFFSET 2.87 0 0
CHANNELS 6 Xposition Yposition Zposition Zrotation Xrotation Yrotation
End Site
{
OFFSET 2.09 0 0
}
}
}
}
JOINT lRing1
{
OFFSET 8.65 1.01 -1.70
CHANNELS 6 Xposition Yposition Zposition Zrotation Xrotation Yrotation
JOINT lRing2
{
OFFSET 4.54 0 0
CHANNELS 6 Xposition Yposition Zposition Zrotation Xrotation Yrotation
JOINT lRing3
{
OFFSET 2.50 0 0
CHANNELS 6 Xposition Yposition Zposition Zrotation Xrotation Yrotation
End Site
{
OFFSET 2.20 0 0
}
}
}
}
JOINT lPinky1
{
OFFSET 7.69 0.66 -3.90
CHANNELS 6 Xposition Yposition Zposition Zrotation Xrotation Yrotation
JOINT lPinky2
{
OFFSET 3.21 0 0
CHANNELS 6 Xposition Yposition Zposition Zrotation Xrotation Yrotation
JOINT lPinky3
{
OFFSET 1.92 0 0
CHANNELS 6 Xposition Yposition Zposition Zrotation Xrotation Yrotation
End Site
{
OFFSET 1.78 0 0
}
}
}
}
}
}
}
}
JOINT rCollar
{
OFFSET -4.06 26.61 -1.12
CHANNELS 6 Xposition Yposition Zposition Zrotation Xrotation Yrotation
JOINT rShldr
{
OFFSET -14.17 0 0
CHANNELS 6 Xposition Yposition Zposition Zrotation Xrotation Yrotation
JOINT rForeArm
{
OFFSET -26.12 0 0
CHANNELS 6 Xposition Yposition Zposition Zrotation Xrotation Yrotation
JOINT rHand
{
OFFSET -27.71 0 0
CHANNELS 6 Xposition Yposition Zposition Zrotation Xrotation Yrotation
JOINT rThumb1
{
OFFSET -2.29 -0.46 1.83
CHANNELS 6 Xposition Yposition Zposition Zrotation Xrotation Yrotation
JOINT rThumb2
{
OFFSET -5.29 0 0
CHANNELS 6 Xposition Yposition Zposition Zrotation Xrotation Yrotation
JOINT rThumb3
{
OFFSET -3.01 0 0
CHANNELS 6 Xposition Yposition Zposition Zrotation Xrotation Yrotation
End Site
{
OFFSET -2.62 0 0
}
}
}
}
JOINT rIndex1
{
OFFSET -9.37 0.29 2.59
CHANNELS 6 Xposition Yposition Zposition Zrotation Xrotation Yrotation
JOINT rIndex2
{
OFFSET -4.34 0 0
CHANNELS 6 Xposition Yposition Zposition Zrotation Xrotation Yrotation
JOINT rIndex3
{
OFFSET -2.16 0 0
CHANNELS 6 Xposition Yposition Zposition Zrotation Xrotation Yrotation
End Site
{
OFFSET -2.20 0 0
}
}
}
}
JOINT rMid1
{
OFFSET -9.47 0.83 0.29
CHANNELS 6 Xposition Yposition Zposition Zrotation Xrotation Yrotation
JOINT rMid2
{
OFFSET -4.77 0 0
CHANNELS 6 Xposition Yposition Zposition Zrotation Xrotation Yrotation
JOINT rMid3
{
OFFSET -2.87 0 0
CHANNELS 6 Xposition Yposition Zposition Zrotation Xrotation Yrotation
End Site
{
OFFSET -2.09 0 0
}
}
}
}
JOINT rRing1
{
OFFSET -8.65 1.01 -1.70
CHANNELS 6 Xposition Yposition Zposition Zrotation Xrotation Yrotation
JOINT rRing2
{
OFFSET -4.54 0 0
CHANNELS 6 Xposition Yposition Zposition Zrotation Xrotation Yrotation
JOINT rRing3
{
OFFSET -2.50 0 0
CHANNELS 6 Xposition Yposition Zposition Zrotation Xrotation Yrotation
End Site
{
OFFSET -2.20 0 0
}
}
}
}
JOINT rPinky1
{
OFFSET -7.69 0.66 -3.90
CHANNELS 6 Xposition Yposition Zposition Zrotation Xrotation Yrotation
JOINT rPinky2
{
OFFSET -3.21 0 0
CHANNELS 6 Xposition Yposition Zposition Zrotation Xrotation Yrotation
JOINT rPinky3
{
OFFSET -1.92 0 0
CHANNELS 6 Xposition Yposition Zposition Zrotation Xrotation Yrotation
End Site
{
OFFSET -1.78 0 0
}
}
}
}
}
}
}
}
}
}
JOINT lThigh
{
OFFSET 8.73 -0 0
CHANNELS 6 Xposition Yposition Zposition Zrotation Xrotation Yrotation
JOINT lShin
{
OFFSET 0 -46.66 0
CHANNELS 6 Xposition Yposition Zposition Zrotation Xrotation Yrotation
JOINT lFoot
{
OFFSET 0 -40.14 0
CHANNELS 6 Xposition Yposition Zposition Zrotation Xrotation Yrotation
JOINT lToes
{
OFFSET 0 -8.88 14.22
CHANNELS 6 Xposition Yposition Zposition Zrotation Xrotation Yrotation
End Site
{
OFFSET 0 0 6.29
}
}
}
}
}
JOINT rThigh
{
OFFSET -8.73 0 -0
CHANNELS 6 Xposition Yposition Zposition Zrotation Xrotation Yrotation
JOINT rShin
{
OFFSET 0 -46.66 0
CHANNELS 6 Xposition Yposition Zposition Zrotation Xrotation Yrotation
JOINT rFoot
{
OFFSET 0 -40.14 0
CHANNELS 6 Xposition Yposition Zposition Zrotation Xrotation Yrotation
JOINT rToes
{
OFFSET 0 -8.88 14.22
CHANNELS 6 Xposition Yposition Zposition Zrotation Xrotation Yrotation
End Site
{
OFFSET 0 0 6.29
}
}
}
}
}
}
MOTION
Frames: 4
Frame Time: 0.03
0.10 80.85 0.18 0.25 -5.47 -42.90 0 7.23 0 -1.07 1.96 3.27 0 16.54 0 -1.91 5.75 6.48 0 34.21 0 -1.88 31.58 14.86 0 6.29 0 -5.22 -14.49 18.62 4.06 26.61 -1.12 -1.62 -3.84 8.46 14.17 0 0 -69.53 -25.59 -35.51 26.12 0 0 -0.82 1.10 -106.34 27.71 0 0 -21.33 0.78 -4.79 2.29 -0.46 1.83 53.91 51.92 -90.04 5.29 0 0 -39.29 -9.79 13.71 3.01 0 0 4.11 13.77 24.78 9.37 0.29 2.59 -40.16 -3.70 4.53 4.34 0 0 -85.75 -10.84 11.96 2.16 0 0 -51.94 -4.48 8.76 9.47 0.83 0.29 -33.90 -6.88 4.20 4.77 0 0 -91.96 -15.46 15.03 2.87 0 0 -45.45 -4.33 12.00 8.65 1.01 -1.70 -34.34 -0.19 5.62 4.54 0 0 -112.19 -10.89 7.33 2.50 0 0 -55.68 -3.39 7.46 7.69 0.66 -3.90 -38.52 -17.89 5.94 3.21 0 0 -78.87 -16.45 19.94 1.92 0 0 -107.05 -25.99 20.93 -4.06 26.61 -1.12 -8.74 -4.25 9.82 -14.17 0 0 73.84 19.44 43.71 -26.12 0 0 0.82 1.09 105.97 -27.71 0 0 14.71 -7.55 17.54 -2.29 -0.46 1.83 -54.04 49.66 90.97 -5.29 0 0 40.72 -10.74 -14.41 -3.01 0 0 2.16 12.04 -27.90 -9.37 0.29 2.59 39.61 -3.22 -3.53 -4.34 0 0 86.20 -9.75 -10.71 -2.16 0 0 52.18 -4.03 -7.84 -9.47 0.83 0.29 33.39 -6.50 -3.27 -4.77 0 0 92.58 -14.25 -13.71 -2.87 0 0 45.75 -4.00 -11.05 -8.65 1.01 -1.70 33.75 0.18 -4.71 -4.54 0 0 112.53 -9.25 -6.18 -2.50 0 0 55.87 -2.89 -6.32 -7.69 0.66 -3.90 38.26 -17.43 -4.88 -3.21 0 0 79.61 -15.55 -18.61 -1.92 0 0 108.04 -24.51 -19.39 8.73 -0 0 18.79 -26.37 25.87 0 -46.66 0 25.10 61.78 -24.25 0 -40.14 0 -18.39 -26.49 -8.30 0 -8.88 14.22 0 0 -0 -8.73 0 -0 -28.77 -15.79 -29.25 0 -46.66 0 -29.41 62.07 13.66 0 -40.14 0 26.09 -29.12 -1.17 0 -8.88 14.22 0 0 0 
0.17 80.85 0.08 0.11 -5.38 -42.92 0 7.23 0 -1.11 1.96 3.31 0 16.54 0 -2.00 5.74 6.59 0 34.21 0 -1.66 31.94 14.59 0 6.29 0 -5.63 -14.96 18.35 4.06 26.61 -1.12 -0.88 -3.85 8.46 14.17 0 0 -70.07 -25.29 -35.58 26.12 0 0 -0.82 1.10 -106.43 27.71 0 0 -21.19 1.72 -4.96 2.29 -0.46 1.83 53.91 51.92 -90.04 5.29 0 0 -39.29 -9.79 13.71 3.01 0 0 4.11 13.77 24.78 9.37 0.29 2.59 -40.16 -3.70 4.53 4.34 0 0 -85.75 -10.84 11.96 2.16 0 0 -51.94 -4.48 8.76 9.47 0.83 0.29 -33.90 -6.88 4.20 4.77 0 0 -91.96 -15.46 15.03 2.87 0 0 -45.45 -4.33 12.00 8.65 1.01 -1.70 -34.34 -0.19 5.62 4.54 0 0 -112.19 -10.89 7.33 2.50 0 0 -55.68 -3.39 7.46 7.69 0.66 -3.90 -38.52 -17.89 5.94 3.21 0 0 -78.87 -16.45 19.94 1.92 0 0 -107.05 -25.99 20.93 -4.06 26.61 -1.12 -8.71 -4.30 9.06 -14.17 0 0 73.47 20.16 44.24 -26.12 0 0 0.83 1.08 104.91 -27.71 0 0 15.12 -7.85 18.44 -2.29 -0.46 1.83 -54.04 49.66 90.97 -5.29 0 0 40.72 -10.74 -14.41 -3.01 0 0 2.16 12.04 -27.90 -9.37 0.29 2.59 39.61 -3.22 -3.53 -4.34 0 0 86.20 -9.75 -10.71 -2.16 0 0 52.18 -4.03 -7.84 -9.47 0.83 0.29 33.39 -6.50 -3.27 -4.77 0 0 92.58 -14.25 -13.71 -2.87 0 0 45.75 -4.00 -11.05 -8.65 1.01 -1.70 33.75 0.18 -4.71 -4.54 0 0 112.53 -9.25 -6.18 -2.50 0 0 55.87 -2.89 -6.32 -7.69 0.66 -3.90 38.26 -17.43 -4.88 -3.21 0 0 79.61 -15.55 -18.61 -1.92 0 0 108.04 -24.51 -19.39 8.73 -0 0 19.00 -26.44 25.90 0 -46.66 0 25.09 61.84 -24.28 0 -40.14 0 -18.34 -26.44 -8.28 0 -8.88 14.22 0 0 -0 -8.73 0 -0 -28.59 -15.86 -29.20 0 -46.66 0 -29.29 62.11 13.49 0 -40.14 0 26.03 -29.07 -1.20 0 -8.88 14.22 0 0 -0 
0.26 80.85 0 -0.03 -5.26 -42.93 0 7.23 0 -1.15 1.95 3.41 0 16.54 0 -2.08 5.72 6.79 0 34.21 0 -1.55 32.48 14.17 0 6.29 0 -5.84 -15.66 18.12 4.06 26.61 -1.12 0.02 -3.88 8.63 14.17 0 0 -70.85 -24.48 -35.82 26.12 0 0 -0.82 1.10 -106.50 27.71 0 0 -20.93 3.02 -5.19 2.29 -0.46 1.83 53.91 51.92 -90.04 5.29 0 0 -39.29 -9.79 13.71 3.01 0 0 4.11 13.77 24.78 9.37 0.29 2.59 -40.16 -3.70 4.53 4.34 0 0 -85.75 -10.84 11.96 2.16 0 0 -51.94 -4.48 8.76 9.47 0.83 0.29 -33.90 -6.88 4.19 4.77 0 0 -91.96 -15.46 15.03 2.87 0 0 -45.45 -4.33 12.00 8.65 1.01 -1.70 -34.34 -0.19 5.62 4.54 0 0 -112.19 -10.89 7.33 2.50 0 0 -55.68 -3.39 7.46 7.69 0.66 -3.90 -38.52 -17.89 5.94 3.21 0 0 -78.87 -16.45 19.94 1.92 0 0 -107.05 -25.99 20.93 -4.06 26.61 -1.12 -8.57 -4.33 8.22 -14.17 0 0 72.91 20.81 44.87 -26.12 0 0 0.83 1.06 103.75 -27.71 0 0 15.81 -7.90 19.25 -2.29 -0.46 1.83 -54.04 49.66 90.97 -5.29 0 0 40.72 -10.74 -14.41 -3.01 0 0 2.16 12.04 -27.90 -9.37 0.29 2.59 39.61 -3.22 -3.53 -4.34 0 0 86.20 -9.75 -10.71 -2.16 0 0 52.18 -4.03 -7.84 -9.47 0.83 0.29 33.39 -6.50 -3.27 -4.77 0 0 92.58 -14.25 -13.71 -2.87 0 0 45.75 -4.00 -11.05 -8.65 1.01 -1.70 33.75 0.18 -4.71 -4.54 0 0 112.53 -9.25 -6.18 -2.50 0 0 55.87 -2.89 -6.32 -7.69 0.66 -3.90 38.26 -17.43 -4.88 -3.21 0 0 79.61 -15.55 -18.61 -1.92 0 0 108.04 -24.51 -19.39 8.73 -0 0 19.20 -26.56 25.93 0 -46.66 0 25.23 61.90 -24.38 0 -40.14 0 -18.33 -26.40 -8.27 0 -8.88 14.22 0 0 0 -8.73 0 -0 -28.52 -15.91 -29.43 0 -46.66 0 -29.22 62.11 13.58 0 -40.14 0 25.88 -29.02 -1.26 0 -8.88 14.22 0 0 0 
0.38 80.84 -0.06 -0.19 -5.10 -42.93 0 7.23 0 -1.17 1.94 3.56 0 16.54 0 -2.14 5.70 7.09 0 34.21 0 -1.49 33.10 13.61 0 6.29 0 -5.90 -16.47 17.91 4.06 26.61 -1.12 1.01 -3.92 8.86 14.17 0 0 -71.78 -23.33 -36.20 26.12 0 0 -0.82 1.10 -106.56 27.71 0 0 -20.56 4.57 -5.44 2.29 -0.46 1.83 53.91 51.92 -90.04 5.29 0 0 -39.29 -9.79 13.71 3.01 0 0 4.11 13.77 24.78 9.37 0.29 2.59 -40.16 -3.70 4.53 4.34 0 0 -85.75 -10.84 11.96 2.16 0 0 -51.94 -4.48 8.76 9.47 0.83 0.29 -33.91 -6.88 4.17 4.77 0 0 -91.96 -15.46 15.03 2.87 0 0 -45.45 -4.33 12.00 8.65 1.01 -1.70 -34.34 -0.19 5.62 4.54 0 0 -112.19 -10.89 7.33 2.50 0 0 -55.68 -3.39 7.46 7.69 0.66 -3.90 -38.52 -17.89 5.94 3.21 0 0 -78.87 -16.45 19.94 1.92 0 0 -107.05 -25.99 20.93 -4.06 26.61 -1.12 -8.38 -4.36 7.32 -14.17 0 0 72.27 21.31 45.66 -26.12 0 0 0.84 1.04 102.55 -27.71 0 0 16.15 -7.93 20.02 -2.29 -0.46 1.83 -54.04 49.66 90.97 -5.29 0 0 40.72 -10.74 -14.41 -3.01 0 0 2.16 12.04 -27.90 -9.37 0.29 2.59 39.61 -3.22 -3.53 -4.34 0 0 86.20 -9.75 -10.71 -2.16 0 0 52.18 -4.03 -7.84 -9.47 0.83 0.29 33.39 -6.50 -3.27 -4.77 0 0 92.58 -14.25 -13.71 -2.87 0 0 45.75 -4.00 -11.05 -8.65 1.01 -1.70 33.75 0.18 -4.71 -4.54 0 0 112.53 -9.25 -6.18 -2.50 0 0 55.87 -2.89 -6.32 -7.69 0.66 -3.90 38.26 -17.43 -4.88 -3.21 0 0 79.61 -15.55 -18.61 -1.92 0 0 108.04 -24.51 -19.39 8.73 -0 0 19.45 -26.71 25.96 0 -46.66 0 25.25 62.01 -24.40 0 -40.14 0 -18.25 -26.36 -8.26 0 -8.88 14.22 0 0 0 -8.73 0 -0 -28.50 -15.96 -29.89 0 -46.66 0 -29.30 62.05 13.95 0 -40.14 0 25.69 -28.96 -1.33 0 -8.88 14.22 -0 0 -0 
